<svg xmlns="http://www.w3.org/2000/svg" width="60" height="60" fill="none"><path d="M30 0c16.56 0 30 13.44 30 30 0 16.56-13.44 30-30 30C13.44 60 0 46.56 0 30 0 13.44 13.44 0 30 0Z" fill="#457A93"></path><path d="M21.534 41.323 38.89 58.677c9.63-2.963 17.09-10.582 19.947-20.264l-20-20.053-7.725.582-8.624 11.323-.741 11.005-.212.053Z" fill="#2A566B"></path><path d="m33.174 31.587-.793 3.44h-5.715c.741 2.328 2.328 3.492 4.815 3.492 2.752 0 5.397-.953 7.566-2.646v7.037a12.43 12.43 0 0 1-7.09 2.01c-4.444 0-7.777-1.005-9.894-3.068a12.415 12.415 0 0 1-3.915-6.826h-3.386l.9-3.439h2.063c-.053-.317-.053-.688-.053-1.005 0-.476 0-.847.053-1.111h-2.487l.9-3.44H18.2c1.64-6.454 6.084-9.629 13.386-9.629 2.54.053 5.027.688 7.249 1.905l-1.693 6.825c-1.693-1.587-3.492-2.328-5.344-2.328-2.434 0-4.074 1.111-4.92 3.28h6.772l-.794 3.44h-6.614c0 .264-.053.635-.053 1.11v1.006l6.984-.053Z" fill="#fff"></path></svg>